<svg height="213.333" viewBox="0 0 160 160" width="213.333" xmlns="http://www.w3.org/2000/svg"><path d="m14.1 2.2c-9.2 3.9-13.1 13.7-10.6 27.1 1.3 7.6 9.2 28.7 10.6 28.7.4 0-.2-2.4-1.3-5.3-1.1-2.8-2.2-5.9-2.4-6.7s-1.1-4.2-2-7.5c-2.4-8.6-2.4-21.1.1-25.2 5.9-9.9 24.7-9.2 44.5 1.5 27.6 15 56.2 41.2 72.6 66.2 8.5 13 9.5 15 12.4 24.5 3.5 11.5 4.2 21.2 2.1 26.7-4.3 11.3-25.8 6.5-47.3-10.7-6.3-4.9-7-6.2-3.7-6.7 3-.4 4.7-3.3 3.3-5.5-.5-.9-5.5-4-11-6.9l-9.9-5.2.3-12c.2-9.9 0-12.2-1.3-13.6-.9-.9-2.1-1.6-2.7-1.6s-5 3.9-9.9 8.6l-8.8 8.7-10.3-4.2c-5.7-2.2-11.3-4.1-12.5-4.1-4.2 0-3.8 3.8 1.6 15l5 10.4-2.6 3.5c-1.5 2-4.6 5.9-6.9 8.8-8.8 10.8-6.7 13.2 9.1 10.9 1.7-.3 5.1-.8 7.7-1.1l4.6-.6 5.7 8.4c9.4 14.2 12 15.1 14.5 5.2.8-3.3 1.5-6.1 1.6-6.3s2.2.9 4.6 2.5c15.8 10.1 38.2 20.2 49.3 22.1 2.2.4 7.8.7 12.5.7 7.2-.1 9.2-.5 12.3-2.4 4.4-2.7 8.6-7.9 9.3-11.5.2-1.4.8-3.6 1.3-4.8.8-2.5.7-11.9-.3-18.1-3.2-20.1-24.2-53.7-48.1-77-17.4-17-43.9-34.4-62-40.5-12.3-4.1-24.5-4.9-31.4-2z"/></svg>